<?xml version="1.0" encoding="UTF-8"?>
<svg id="Isolation_Mode" data-name="Isolation Mode" xmlns="http://www.w3.org/2000/svg" viewBox="0 0 500 500">
  <defs>
    <style>
      .cls-1 {
        fill: #fff;
        stroke-width: 0px;
      }
    </style>
  </defs>
  <path class="cls-1" d="M284.21,200.85c-2.69-1.58-5.87-1.77-8.75-.54-2.9,1.25-4.98,3.73-5.69,6.8-.97,4.19.83,8.44,4.48,10.58,15.88,9.31,24.98,26.49,23.75,44.82-1.59,23.81-20.73,43.02-44.52,44.7-13.51.95-26.37-3.59-36.25-12.79-9.75-9.08-15.34-21.91-15.34-35.19,0-16.96,9.12-32.86,23.79-41.5,3.68-2.17,5.5-6.43,4.54-10.61-.71-3.08-2.79-5.55-5.69-6.8-2.89-1.24-6.09-1.04-8.79.55-22.83,13.44-35.52,38.23-33.11,64.7,2.95,32.42,29.68,58.69,62.17,61.12,1.76.13,3.52.2,5.26.2,17.13,0,33.28-6.31,45.94-18.06,13.76-12.77,21.64-30.85,21.64-49.6,0-23.89-12.82-46.26-33.45-58.38Z"/>
  <path class="cls-1" d="M250.08,244.5c2.87,0,5.32-.99,7.09-2.85,1.76-1.85,2.65-4.35,2.65-7.43v-50.83c0-3.08-.89-5.58-2.65-7.44-1.8-1.89-4.25-2.84-7.27-2.84s-5.32.99-7.09,2.85c-1.76,1.85-2.65,4.35-2.65,7.43v50.83c0,3.08.89,5.58,2.65,7.44,1.8,1.89,4.25,2.84,7.27,2.84Z"/>
</svg>